<svg width="28" height="28" viewBox="0 0 28 28" fill="none" xmlns="http://www.w3.org/2000/svg">
<path opacity="0.5" d="M14.0006 25.6668C7.55733 25.6668 2.33398 20.4434 2.33398 14.0002C2.33398 7.55684 7.55733 2.3335 14.0006 2.3335C20.4439 2.3335 25.6673 7.55684 25.6673 14.0002C25.6673 20.4434 20.4439 25.6668 14.0006 25.6668ZM14.0006 23.3335C19.1553 23.3335 23.334 19.1548 23.334 14.0002C23.334 8.8455 19.1553 4.66683 14.0006 4.66683C8.84599 4.66683 4.66732 8.8455 4.66732 14.0002C4.66732 19.1548 8.84599 23.3335 14.0006 23.3335ZM8.16732 15.1668H10.5007C10.5007 17.0999 12.0676 18.6668 14.0006 18.6668C15.9337 18.6668 17.5006 17.0999 17.5006 15.1668H19.834C19.834 18.3885 17.2223 21.0002 14.0006 21.0002C10.779 21.0002 8.16732 18.3885 8.16732 15.1668ZM9.33398 12.8335C8.36748 12.8335 7.58398 12.05 7.58398 11.0835C7.58398 10.117 8.36748 9.3335 9.33398 9.3335C10.3005 9.3335 11.084 10.117 11.084 11.0835C11.084 12.05 10.3005 12.8335 9.33398 12.8335ZM18.6673 12.8335C17.7008 12.8335 16.9173 12.05 16.9173 11.0835C16.9173 10.117 17.7008 9.3335 18.6673 9.3335C19.6338 9.3335 20.4173 10.117 20.4173 11.0835C20.4173 12.05 19.6338 12.8335 18.6673 12.8335Z" fill="#494949"/>
</svg>
