<svg width="28" height="28" viewBox="0 0 28 28" fill="none" xmlns="http://www.w3.org/2000/svg">
<path opacity="0.5" d="M12.3844 20.7614C11.9908 21.6627 10.7434 21.6627 10.3498 20.7614L9.32585 18.4161C8.41464 16.3292 6.77451 14.6679 4.72866 13.7597L1.91032 12.5087C1.01427 12.111 1.01427 10.8075 1.91032 10.4097L4.64063 9.19777C6.73909 8.26628 8.40864 6.54345 9.30429 4.38524L10.3415 1.88602C10.7264 0.958566 12.0078 0.958564 12.3927 1.88602L13.4299 4.38527C14.3255 6.54345 15.995 8.26628 18.0935 9.19777L20.8239 10.4097C21.7199 10.8075 21.7199 12.111 20.8239 12.5087L18.0056 13.7597C15.9597 14.6679 14.3196 16.3292 13.4083 18.4161L12.3844 20.7614ZM5.29713 11.4592C7.96394 12.643 10.1323 14.5888 11.3671 17.266C12.6019 14.5888 14.7703 12.643 17.437 11.4592C14.7384 10.2613 12.5632 8.22072 11.3671 5.49586C10.171 8.22073 7.99576 10.2613 5.29713 11.4592ZM22.6359 26.4714L22.9239 25.8114C23.4372 24.6347 24.3618 23.6978 25.5154 23.1852L26.4025 22.791C26.8824 22.5779 26.8824 21.8806 26.4025 21.6674L25.5651 21.2952C24.3817 20.7695 23.4406 19.7979 22.936 18.5812L22.6404 17.868C22.4342 17.371 21.7471 17.371 21.5409 17.868L21.2453 18.5812C20.7408 19.7979 19.7997 20.7695 18.6163 21.2952L17.7788 21.6674C17.299 21.8806 17.299 22.5779 17.7788 22.791L18.6659 23.1852C19.8196 23.6978 20.7441 24.6347 21.2574 25.8114L21.5455 26.4714C21.7562 26.9545 22.4251 26.9545 22.6359 26.4714ZM21.4379 22.2212L22.0941 21.5695L22.7367 22.2212L22.0941 22.8546L21.4379 22.2212Z" fill="white"/>
</svg>
