<?xml version="1.0" encoding="UTF-8"?><svg id="Layer_1" xmlns="http://www.w3.org/2000/svg" viewBox="0 0 896.49 177.75"><defs><style>.cls-1{fill:#4c22ff;}</style></defs><path class="cls-1" d="M339,48.25h31v125h-31V48.25Zm-185,80.25c-22.75,0-36.75,17-65.75,17-31.25,0-57-25.5-57-57S57,31.25,88.25,31.25s57,26,57,57.25c0,9.75-2,20.5-6,28,12.25-2.75,21-3.25,33,0,2.75-8.75,4.25-18.25,4.25-28C176.5,39.75,137.5,0,88.25,0S0,39.75,0,88.5s39.5,88.25,88.25,88.25c34.75,0,46-16.5,64.25-16.5,9.25,0,13.75,7.5,15.5,17.5l29.75-7.25c-3.25-26-19.75-42-43.75-42ZM354.5,0c-10.75,0-18.75,8-18.75,18.25s8,18.25,18.75,18.25,18.75-8,18.75-18.25S365.25,0,354.5,0Zm-71.25,117.25c0,17.25-8.75,30-27.25,30-17.25,0-23.25-11.25-23.25-29V48.25h-31.25V121.5c0,35.5,16.75,54.25,48.25,54.25,12.76,0,27.43-5.26,35-16.01v13.51h29.5V48.25h-31V117.25Zm172.75,29.5c-21.75,0-36.5-15.25-36.5-36s14.75-36,36.5-36c11.75,0,19.25,3.25,27.5,10.5l18.5-22.5c-13.75-12.25-29.75-17.5-47.5-17.5-38.75,0-66.75,27.25-66.75,65.5s28,65.5,66.75,65.5c17.75,0,35.5-5.25,49.25-17.5l-18-22.5c-8.5,7.25-18,10.5-29.75,10.5ZM835.5,45.75c-12.76,0-27.43,5.26-35,16.01v-13.51h-29.5v125h31V104.25c0-17.25,8.75-30,27.25-30,17.25,0,23.25,11.25,23.25,29v70h31.25V100c0-35.5-16.75-54.25-48.25-54.25Zm-82.25,62c0,4.5,0,11-.5,14.25h-93.17c2.28,14.94,16.48,26.25,35.92,26.25,11.5,0,22.75-3.75,31-10.75l16.75,21.25c-14,12.75-31.25,17.5-48.75,17.5-38,0-67-23.5-67-65.25,0-36.75,26.5-65.75,63.75-65.75,35.25,0,62,26.75,62,62.5Zm-93.42-10h62.5c-3.19-15.15-14.48-25.25-30.83-25.25s-28.81,10.14-31.67,25.25Zm-28.08-49.5h-36.75l-47.5,51.59V2.75h-31V173.25h31v-33.54l14.01-15.62,35.49,48.91,.25,.25h35.25l-50.34-70.34,49.59-54.66Z"/><path class="cls-1" d="M890.12,45.73c3.63,0,6.37,2.74,6.37,6.37s-2.74,6.37-6.37,6.37-6.37-2.71-6.37-6.37,2.71-6.37,6.37-6.37Zm0,11.56c2.94,0,5.12-2.21,5.12-5.18s-2.18-5.18-5.12-5.18-5.12,2.21-5.12,5.18,2.18,5.18,5.12,5.18Zm-2.28-8.52h2.58c1.25,0,2.05,.79,2.05,1.98,0,.76-.43,1.39-1.06,1.68l1.85,3h-1.45l-1.65-2.74h-1.09v2.74h-1.22v-6.67Zm2.38,2.87c.63,0,1.02-.36,1.02-.89s-.4-.92-1.02-.92h-1.16v1.82h1.16Z"/></svg>