<svg width="28" height="28" viewBox="0 0 28 28" fill="none" xmlns="http://www.w3.org/2000/svg">
<path opacity="0.5" d="M16.3399 2.33691C21.4946 2.33691 25.6732 6.51559 25.6732 11.6702C25.6732 15.4556 23.4197 18.7147 20.181 20.1791C18.7167 23.4174 15.458 25.6702 11.6732 25.6702C6.51852 25.6702 2.33984 21.4916 2.33984 16.3369C2.33984 12.5521 4.5927 9.29343 7.83057 7.82878C9.29543 4.59041 12.5545 2.33691 16.3399 2.33691ZM11.6732 9.33691C7.80718 9.33691 4.67318 12.4709 4.67318 16.3369C4.67318 20.2029 7.80718 23.3369 11.6732 23.3369C15.5392 23.3369 18.6732 20.2029 18.6732 16.3369C18.6732 12.4709 15.5392 9.33691 11.6732 9.33691ZM12.8399 10.5036V11.6702H15.1732V14.0035H10.5065C10.1843 14.0035 9.92318 14.2648 9.92318 14.5869C9.92318 14.8733 10.1295 15.1114 10.4017 15.1609L10.5065 15.1702H12.8399C14.4507 15.1702 15.7565 16.4761 15.7565 18.0869C15.7565 19.6977 14.4507 21.0035 12.8399 21.0035V22.1702H10.5065V21.0035H8.17318V18.6702H12.8399C13.162 18.6702 13.4232 18.4091 13.4232 18.0869C13.4232 17.8006 13.2168 17.5623 12.9447 17.513L12.8399 17.5035H10.5065C8.89568 17.5035 7.58984 16.1977 7.58984 14.5869C7.58984 12.9761 8.89568 11.6702 10.5065 11.6702V10.5036H12.8399ZM16.3399 4.67025C14.2591 4.67025 12.3904 5.5781 11.1082 7.01932C11.2957 7.00922 11.4838 7.00358 11.6732 7.00358C16.8279 7.00358 21.0065 11.1823 21.0065 16.3369C21.0065 16.5267 21.0008 16.7152 20.9897 16.9021C22.4317 15.6203 23.3399 13.7513 23.3399 11.6702C23.3399 7.80425 20.2059 4.67025 16.3399 4.67025Z" fill="#494949"/>
</svg>
