<svg xmlns="http://www.w3.org/2000/svg" width="20" height="21" viewBox="0 0 20 21" fill="none">
  <path d="M10 2.375C8.39303 2.375 6.82214 2.85152 5.486 3.74431C4.14985 4.6371 3.10844 5.90605 2.49348 7.3907C1.87852 8.87535 1.71762 10.509 2.03112 12.0851C2.34463 13.6612 3.11846 15.1089 4.25476 16.2452C5.39106 17.3815 6.8388 18.1554 8.4149 18.4689C9.99099 18.7824 11.6247 18.6215 13.1093 18.0065C14.594 17.3916 15.8629 16.3502 16.7557 15.014C17.6485 13.6779 18.125 12.107 18.125 10.5C18.1227 8.34581 17.266 6.28051 15.7427 4.75727C14.2195 3.23403 12.1542 2.37727 10 2.375ZM16.875 10.5C16.8757 11.382 16.7059 12.2558 16.375 13.0734L12.8828 10.9258C12.7343 10.8342 12.5682 10.7748 12.3953 10.7516L10.6125 10.5109C10.3668 10.4789 10.1172 10.5201 9.89483 10.6293C9.67247 10.7386 9.48729 10.911 9.3625 11.125H8.68125L8.38438 10.5109C8.30231 10.34 8.18219 10.19 8.03324 10.0726C7.88428 9.95521 7.71043 9.87345 7.525 9.83359L6.9 9.69844L7.51094 8.625H8.81641C9.02766 8.62459 9.23538 8.57084 9.42032 8.46875L10.3773 7.94062C10.4614 7.89376 10.54 7.83768 10.6117 7.77344L12.7141 5.87188C12.9248 5.68298 13.0649 5.42788 13.1112 5.14865C13.1575 4.86942 13.1073 4.58276 12.9688 4.33594L12.9406 4.28516C14.117 4.84297 15.1111 5.72296 15.8075 6.82301C16.5039 7.92306 16.8741 9.19805 16.875 10.5ZM11.1961 3.72969L11.875 4.94531L9.77266 6.84687L8.81641 7.375H7.51094C7.29121 7.37468 7.07527 7.43228 6.8849 7.54201C6.69452 7.65173 6.53643 7.80971 6.42657 8L5.74453 9.18984L4.95157 7.07734L5.80625 5.05625C6.56277 4.47171 7.43304 4.05164 8.36132 3.82293C9.28959 3.59423 10.2554 3.56194 11.1969 3.72812L11.1961 3.72969ZM3.125 10.5C3.12396 9.47814 3.35194 8.46904 3.79219 7.54688L4.67813 9.91172C4.75196 10.1075 4.87376 10.2817 5.03237 10.4181C5.19098 10.5546 5.38132 10.6491 5.58594 10.693L7.26016 11.0531L7.55782 11.6719C7.66112 11.8823 7.82121 12.0597 8.02001 12.1839C8.2188 12.3082 8.44839 12.3744 8.68282 12.375H8.79844L8.2336 13.643C8.13407 13.8662 8.1022 14.1138 8.14191 14.355C8.18162 14.5962 8.29118 14.8204 8.45704 15L8.46797 15.0109L10 16.5891L9.84844 17.3703C8.05299 17.3285 6.34497 16.5867 5.08885 15.3031C3.83273 14.0196 3.12798 12.2959 3.125 10.5ZM11.1391 17.2797L11.2273 16.8258C11.2636 16.6329 11.2543 16.4343 11.2 16.2457C11.1457 16.0571 11.0481 15.8839 10.9148 15.7398C10.911 15.7364 10.9074 15.7327 10.9039 15.7289L9.375 14.1516L10.4453 11.75L12.2281 11.9906L15.8 14.1875C15.2825 15.0002 14.6003 15.6953 13.7975 16.2279C12.9946 16.7605 12.089 17.1188 11.1391 17.2797Z" fill="#494949"/>
</svg>