<svg width="350" height="40" viewBox="0 0 350 40" fill="none" xmlns="http://www.w3.org/2000/svg">
<rect width="350" height="40" />
<rect x="19" width="64" height="40" rx="8" fill="#DBD3FF" fill-opacity="0.4"/>
<path d="M42.8977 13.0964C45.1197 10.8744 48.6599 10.7742 51.0008 12.7958C53.3401 10.7742 56.8804 10.8744 59.1023 13.0964C61.3202 15.3143 61.424 18.8459 59.4137 21.1868L52.2964 28.3287C51.6129 29.012 50.5242 29.0431 49.804 28.4218L49.7037 28.3287L42.5863 21.1868C40.576 18.8459 40.6798 15.3143 42.8977 13.0964ZM44.1941 14.3927C42.6292 15.9576 42.5845 18.467 44.06 20.0859L44.1941 20.2263L51 27.0322L55.8608 22.1702L52.6204 18.93L51.6482 19.9023C50.5742 20.9762 48.833 20.9762 47.7591 19.9023C46.6852 18.8283 46.6852 17.0871 47.7591 16.0132L49.6852 14.0859C48.1152 12.829 45.8399 12.8866 44.3346 14.2586L44.1941 14.3927ZM51.9723 16.9854C52.3302 16.6275 52.9106 16.6275 53.2686 16.9854L57.1571 20.8739L57.8059 20.2263C59.4168 18.6155 59.4168 16.0036 57.8059 14.3927C56.241 12.8278 53.7316 12.7831 52.1128 14.2586L51.9723 14.3927L49.0555 17.3095C48.7231 17.6419 48.6993 18.1661 48.9842 18.5259L49.0555 18.6059C49.3879 18.9383 49.912 18.9621 50.2718 18.6772L50.3519 18.6059L51.9723 16.9854Z" fill="#8C71FF"/>
</svg>
