<svg width="350" height="40" viewBox="0 0 350 40" fill="none" xmlns="http://www.w3.org/2000/svg">
<rect width="350" height="40" />
<rect x="19" width="64" height="40" rx="8" fill="#DBD3FF" fill-opacity="0.4"/>
<path d="M52.8379 10.8361C56.888 10.8361 60.1712 14.1193 60.1712 18.1694C60.1712 21.1436 58.4006 23.7043 55.8559 24.8549C54.7054 27.3993 52.145 29.1694 49.1712 29.1694C45.1211 29.1694 41.8379 25.8861 41.8379 21.836C41.8379 18.8623 43.608 16.3019 46.152 15.1511C47.303 12.6067 49.8637 10.8361 52.8379 10.8361ZM49.1712 16.3361C46.1337 16.3361 43.6712 18.7985 43.6712 21.836C43.6712 24.8736 46.1337 27.336 49.1712 27.336C52.2088 27.336 54.6712 24.8736 54.6712 21.836C54.6712 18.7985 52.2088 16.3361 49.1712 16.3361ZM50.0879 17.2527V18.1694H51.9212V20.0027H48.2546C48.0014 20.0027 47.7962 20.2079 47.7962 20.461C47.7962 20.6861 47.9584 20.8732 48.1722 20.912L48.2546 20.9194H50.0879C51.3536 20.9194 52.3796 21.9454 52.3796 23.211C52.3796 24.4767 51.3536 25.5027 50.0879 25.5027V26.4194H48.2546V25.5027H46.4212V23.6694H50.0879C50.341 23.6694 50.5462 23.4642 50.5462 23.211C50.5462 22.9861 50.3841 22.7989 50.1703 22.7601L50.0879 22.7527H48.2546C46.9889 22.7527 45.9629 21.7267 45.9629 20.461C45.9629 19.1954 46.9889 18.1694 48.2546 18.1694V17.2527H50.0879ZM52.8379 12.6694C51.203 12.6694 49.7347 13.3827 48.7273 14.5151C48.8746 14.5072 49.0224 14.5027 49.1712 14.5027C53.2214 14.5027 56.5046 17.786 56.5046 21.836C56.5046 21.9852 56.5001 22.1333 56.4914 22.2802C57.6244 21.273 58.3379 19.8045 58.3379 18.1694C58.3379 15.1318 55.8755 12.6694 52.8379 12.6694Z" fill="#8C71FF"/>
</svg>
