<svg width="350" height="40" viewBox="0 0 350 40" fill="none" xmlns="http://www.w3.org/2000/svg">
<rect width="350" height="40" />
<rect x="19" width="64" height="40" rx="8" fill="#DBD3FF" fill-opacity="0.4"/>
<path d="M41.8333 27.3334H60.1666V29.1667H41.8333V27.3334ZM43.6666 20H45.4999V26.4167H43.6666V20ZM48.2499 20H50.0833V26.4167H48.2499V20ZM51.9166 20H53.7499V26.4167H51.9166V20ZM56.4999 20H58.3333V26.4167H56.4999V20ZM41.8333 15.4167L50.9999 10.8334L60.1666 15.4167V19.0834H41.8333V15.4167ZM43.6666 16.5498V17.25H58.3333V16.5498L50.9999 12.8831L43.6666 16.5498ZM50.9999 16.3334C50.4936 16.3334 50.0833 15.923 50.0833 15.4167C50.0833 14.9105 50.4936 14.5 50.9999 14.5C51.5062 14.5 51.9166 14.9105 51.9166 15.4167C51.9166 15.923 51.5062 16.3334 50.9999 16.3334Z" fill="#8C71FF"/>
</svg>
