<svg width="15" height="19" viewBox="0 0 15 19" fill="none" xmlns="http://www.w3.org/2000/svg">
<path id="Vector" d="M0.785889 18.5879C0.785889 14.8008 3.85593 11.7307 7.64303 11.7307C11.4301 11.7307 14.5002 14.8008 14.5002 18.5879H12.7859C12.7859 15.7476 10.4833 13.445 7.64303 13.445C4.80271 13.445 2.50017 15.7476 2.50017 18.5879H0.785889ZM7.64303 10.8736C4.8016 10.8736 2.50017 8.57218 2.50017 5.73075C2.50017 2.88932 4.8016 0.587891 7.64303 0.587891C10.4845 0.587891 12.7859 2.88932 12.7859 5.73075C12.7859 8.57218 10.4845 10.8736 7.64303 10.8736ZM7.64303 9.15932C9.53732 9.15932 11.0716 7.62503 11.0716 5.73075C11.0716 3.83646 9.53732 2.30218 7.64303 2.30218C5.74875 2.30218 4.21446 3.83646 4.21446 5.73075C4.21446 7.62503 5.74875 9.15932 7.64303 9.15932Z" fill="#18181F"/>
</svg>
