<svg xmlns="http://www.w3.org/2000/svg" width="20" height="21" viewBox="0 0 20 21" fill="none">
  <path d="M13.75 1.75H6.25C5.75272 1.75 5.27581 1.94754 4.92417 2.29917C4.57254 2.65081 4.375 3.12772 4.375 3.625V17.375C4.375 17.8723 4.57254 18.3492 4.92417 18.7008C5.27581 19.0525 5.75272 19.25 6.25 19.25H13.75C14.2473 19.25 14.7242 19.0525 15.0758 18.7008C15.4275 18.3492 15.625 17.8723 15.625 17.375V3.625C15.625 3.12772 15.4275 2.65081 15.0758 2.29917C14.7242 1.94754 14.2473 1.75 13.75 1.75ZM5.625 5.5H14.375V15.5H5.625V5.5ZM6.25 3H13.75C13.9158 3 14.0747 3.06585 14.1919 3.18306C14.3092 3.30027 14.375 3.45924 14.375 3.625V4.25H5.625V3.625C5.625 3.45924 5.69085 3.30027 5.80806 3.18306C5.92527 3.06585 6.08424 3 6.25 3ZM13.75 18H6.25C6.08424 18 5.92527 17.9342 5.80806 17.8169C5.69085 17.6997 5.625 17.5408 5.625 17.375V16.75H14.375V17.375C14.375 17.5408 14.3092 17.6997 14.1919 17.8169C14.0747 17.9342 13.9158 18 13.75 18Z" fill="#494949"/>
</svg>