<svg width="56" height="56" viewBox="0 0 56 56" fill="none" xmlns="http://www.w3.org/2000/svg">
<g id="My Account icon">
<rect width="56" height="56" rx="8" fill="#DBD3FF"/>
<path id="Vector" d="M19.6 38.6515C19.6 34.054 23.327 30.327 27.9244 30.327C32.5219 30.327 36.2489 34.054 36.2489 38.6515H34.1678C34.1678 35.2034 31.3725 32.4081 27.9244 32.4081C24.4763 32.4081 21.6811 35.2034 21.6811 38.6515H19.6ZM27.9244 29.2865C24.475 29.2865 21.6811 26.4926 21.6811 23.0431C21.6811 19.5937 24.475 16.7998 27.9244 16.7998C31.3739 16.7998 34.1678 19.5937 34.1678 23.0431C34.1678 26.4926 31.3739 29.2865 27.9244 29.2865ZM27.9244 27.2054C30.224 27.2054 32.0866 25.3428 32.0866 23.0431C32.0866 20.7435 30.224 18.8809 27.9244 18.8809C25.6248 18.8809 23.7622 20.7435 23.7622 23.0431C23.7622 25.3428 25.6248 27.2054 27.9244 27.2054Z" fill="#471CFF"/>
</g>
</svg>
