<svg width="38" height="38" viewBox="0 0 38 38" fill="none" xmlns="http://www.w3.org/2000/svg">
<g id="Anim">
<g id="Group 2608342">
<rect id="Rectangle 5585" x="0.662109" y="0.243408" width="37.0328" height="37.0328" rx="5.62998" fill="#471CFF"/>
<path id="Vector" d="M26.0565 23.5216C23.2108 23.5216 21.4596 25.6412 17.832 25.6412C13.923 25.6412 10.702 22.4618 10.702 18.5342C10.702 14.6067 13.923 11.3961 17.832 11.3961C21.741 11.3961 24.962 14.6379 24.962 18.5342C24.962 19.7499 24.7118 21.0902 24.2115 22.0254C25.7438 21.6825 26.8383 21.6201 28.3394 22.0254C28.6834 20.9344 28.871 19.7499 28.871 18.5342C28.871 12.4559 23.9926 7.49976 17.832 7.49976C11.6714 7.49976 6.79297 12.4559 6.79297 18.5342C6.79297 24.6126 11.7339 29.5375 17.832 29.5375C22.1788 29.5375 23.5861 27.4803 25.8689 27.4803C27.026 27.4803 27.5889 28.4154 27.8078 29.6622L31.5291 28.7583C31.1226 25.5165 29.0587 23.5216 26.0565 23.5216Z" fill="white"/>
</g>
</g>
</svg>
