<svg width="72" height="73" viewBox="0 0 72 73" fill="none" xmlns="http://www.w3.org/2000/svg">
<rect y="0.0898438" width="72" height="72.3742" rx="12" fill="#4C22FF"/>
<path d="M49.2889 45.6956C44.1349 45.6956 40.9632 49.5977 34.3933 49.5977C27.3137 49.5977 21.48 43.7445 21.48 36.5141C21.48 29.2838 27.3137 23.3732 34.3933 23.3732C41.473 23.3732 47.3066 29.3411 47.3066 36.5141C47.3066 38.7521 46.8535 41.2196 45.9473 42.9412C48.7225 42.3099 50.7048 42.1952 53.4234 42.9412C54.0464 40.9327 54.3862 38.7521 54.3862 36.5141C54.3862 25.3243 45.5508 16.2002 34.3933 16.2002C23.2358 16.2002 14.4004 25.3243 14.4004 36.5141C14.4004 47.704 23.3491 56.7707 34.3933 56.7707C42.2659 56.7707 44.8145 52.9834 48.9491 52.9834C51.0446 52.9834 52.0641 54.7049 52.4606 57.0002L59.2004 55.3361C58.4641 49.3682 54.7261 45.6956 49.2889 45.6956Z" fill="white"/>
</svg>
