<svg width="14" height="14" viewBox="0 0 14 14" fill="none" xmlns="http://www.w3.org/2000/svg">
<path id="Vector" d="M11.5325 9.51803L10.5253 8.51081L11.5325 7.50359C12.9232 6.11291 12.9232 3.85815 11.5325 2.46745C10.1418 1.07676 7.88705 1.07676 6.49638 2.46745L5.48914 3.47469L4.48192 2.46745L5.48914 1.46023C7.43615 -0.486743 10.5928 -0.486743 12.5398 1.46023C14.4867 3.4072 14.4867 6.56389 12.5398 8.51081L11.5325 9.51803ZM9.51803 11.5325L8.51081 12.5398C6.56389 14.4867 3.4072 14.4867 1.46023 12.5398C-0.486743 10.5928 -0.486743 7.43614 1.46023 5.48914L2.46745 4.48191L3.47468 5.48914L2.46745 6.49637C1.07676 7.88705 1.07676 10.1419 2.46745 11.5325C3.85815 12.9232 6.11292 12.9232 7.5036 11.5325L8.51081 10.5253L9.51803 11.5325ZM9.01442 3.9783L10.0216 4.98553L4.98553 10.0217L3.9783 9.01442L9.01442 3.9783Z" fill="#471CFF"/>
</svg>
