<svg width="56" height="56" viewBox="0 0 56 56" fill="none" xmlns="http://www.w3.org/2000/svg">
<g id="Icon Quicken red">
<rect width="56" height="56" rx="8" fill="#EB0130"/>
<path id="Vector" d="M37.4543 34.5538C33.6792 34.5538 31.3561 37.3656 26.5439 37.3656C21.3584 37.3656 17.0855 33.1479 17.0855 27.9378C17.0855 22.7277 21.3584 18.4686 26.5439 18.4686C31.7295 18.4686 36.0024 22.769 36.0024 27.9378C36.0024 29.5504 35.6705 31.3285 35.0067 32.569C37.0395 32.1141 38.4914 32.0315 40.4827 32.569C40.939 31.1217 41.1879 29.5504 41.1879 27.9378C41.1879 19.8745 34.7163 13.2998 26.5439 13.2998C18.3715 13.2998 11.8999 19.8745 11.8999 27.9378C11.8999 36.0011 18.4544 42.5344 26.5439 42.5344C32.3102 42.5344 34.177 39.8053 37.2054 39.8053C38.7403 39.8053 39.4871 41.0458 39.7774 42.6998L44.7141 41.5006C44.1748 37.2002 41.4368 34.5538 37.4543 34.5538Z" fill="white"/>
</g>
</svg>
