<svg xmlns="http://www.w3.org/2000/svg" width="382" height="360" viewBox="0 0 382 360" fill="none">
  <path d="M382 370.058L314.061 402L313.304 400.223C290.95 348.956 260.241 358.858 213.759 373.871C195.971 379.62 175.771 386.129 153.078 390.121C142.51 391.978 132.34 393.176 122.11 393.635C121.013 393.715 119.877 393.755 118.72 393.795C117.583 393.835 116.487 393.875 115.33 393.875H114.533C113.017 393.955 111.442 393.954 109.926 393.954C-8.04427 393.954 -104 299.066 -104 182.457C-104 65.8283 -8.04427 -29 109.926 -29C227.897 -29 323.852 65.8483 323.852 182.457C323.852 205.136 320.263 227.456 313.124 248.737L312.625 250.215L311.19 249.576C284.948 237.817 257.369 242.129 224.068 252.231L220.678 253.249L222.373 250.155C233.739 229.512 239.741 205.915 239.741 181.918C239.741 106.714 181.434 45.5052 109.767 45.5052C38.099 45.5052 -20.2082 106.714 -20.2082 181.918C-20.2082 257.162 38.099 318.391 109.767 318.391H112.299C144.444 318.132 174.076 308.489 202.711 299.146C235.115 288.605 265.705 278.623 294.998 284.553C319.764 289.583 341.301 305.694 360.863 333.843C367.802 343.785 374.642 355.384 381.103 368.321L382 370.058Z" fill="#471CFF"/>
</svg>